# xmcd
#
# Track frame offsets:
#	150
#	18135
#	35244
#	49245
#	65542
#	84875
#	96550
#	115377
#	131948
#	148642
#	162304
#	176471
#	190743
#	201446
#	215749
#	230465
#	246723
#	263158
#	280927
#
# Disc length: 3963 seconds
#
# Revision: 1
# Processed by: cddbd v1.5.2PL0 Copyright (c) Steve Scherf et al.
# Submitted via: audiograbber 1.83.01
#
DISCID=2a0f7913
DTITLE=Various Artist - Hott Country 146
DYEAR=2008
DGENRE=Country
TTITLE0=Carrie Underwood - Last Name
TTITLE1=Wille Mack - Golden Years
TTITLE2=Toby Keith - She's A Hottie
TTITLE3=Phil Stacey - If You Didn't Love Me
TTITLE4=Deric Ruttan - First Time In  Along Time
TTITLE5=Tracy Millar - Spread A Little Love Around
TTITLE6=Cross Canadian Ragweed - Cry Lonely
TTITLE7=Kenny Chesney - Better As A Memory
TTITLE8=Melanie Morgan - Can't Trust The Weatherman
TTITLE9=Craig Moritz - Good At Lovin' You
TTITLE10=Luke Bryan - Country Man
TTITLE11=Lost Trailers - Holler Back
TTITLE12=J.R. Vautour - I Give
TTITLE13=Julianne Hough - That Song In My Head
TTITLE14=Jennifer Hanson - 73
TTITLE15=Alan Jackson - Good Time ( Radio Edit )
TTITLE16=Eric Church - His Kind Of Money( My Kind Of Love )
TTITLE17=George Canyon - Seven Spanish Angels
TTITLE18=Freddy Fender - Secret Love ( 1975 )
EXTD=April 2008
EXTT0=
EXTT1=
EXTT2=
EXTT3=
EXTT4=
EXTT5=
EXTT6=
EXTT7=
EXTT8=
EXTT9=
EXTT10=
EXTT11=
EXTT12=
EXTT13=
EXTT14=
EXTT15=
EXTT16=
EXTT17=
EXTT18=
PLAYORDER=
